<svg class="svg-icon" style="width: 1em; height: 1em;vertical-align: middle;fill: currentColor;overflow: hidden;" viewBox="0 0 1024 1024" version="1.1" xmlns="http://www.w3.org/2000/svg"><path d="M832 736a128 128 0 0 0-125.28 101.824l-318.304-0.064c-8.352-5.568-13.44-43.616-16.448-69.76h92.384c14.592 19.328 37.568 32 63.648 32a80 80 0 1 0-78.4-96h-86.24c-11.616-63.136-38.336-128-122.144-128H96a32 32 0 1 0 0 64h145.248c32.32 0 47.136 19.776 56.704 64H96a32 32 0 0 0 0 64h211.552c6.72 60.064 15.584 133.824 82.24 133.824h318.176c0.8 0 1.44-0.384 2.208-0.448C726.272 953.696 774.4 992 832 992a128 128 0 0 0 0-256z m0 192a64 64 0 1 1 0.032-128.032A64 64 0 0 1 832 928zM96 512h384.512c1.344 0 2.496-0.608 3.776-0.768A127.744 127.744 0 0 0 608 608a128 128 0 0 0 0-256 127.744 127.744 0 0 0-123.712 96.768c-1.28-0.16-2.432-0.768-3.776-0.768H96a32 32 0 0 0 0 64z m512-96a64 64 0 1 1-0.032 128.032A64 64 0 0 1 608 416zM96 389.792h145.248c108.224 0 121.6-90.272 129.6-144.192 6.688-45.504 10.784-53.6 18.944-53.6h298.56c14.592 19.328 37.568 32 63.648 32a80 80 0 1 0-78.4-96h-283.808C323.52 128 313.888 193.12 307.52 236.224c-9.408 63.648-18.048 89.568-66.272 89.568H96a32 32 0 0 0 0 64z"  /></svg>